<?xml version="1.0" standalone="no"?>
<!DOCTYPE svg PUBLIC "-//W3C//DTD SVG 20010904//EN"
 "http://www.w3.org/TR/2001/REC-SVG-20010904/DTD/svg10.dtd">
<svg version="1.0" xmlns="http://www.w3.org/2000/svg"
 width="104.000000pt" height="49.000000pt" viewBox="0 0 104.000000 49.000000"
 preserveAspectRatio="xMidYMid meet">

<g transform="translate(0.000000,49.000000) scale(0.100000,-0.100000)"
fill="#000000" stroke="none">
<path d="M778 423 c8 -3 12 -35 12 -108 0 -73 -4 -105 -12 -108 -7 -3 5 -6 27
-6 l40 -1 -3 115 -3 115 -37 -1 c-20 0 -31 -3 -24 -6z"/>
<path d="M958 328 c1 -57 4 -109 7 -115 2 -7 17 -13 32 -13 l28 0 -5 112 -5
113 -30 3 -30 3 3 -103z"/>
<path d="M18 403 c17 -7 17 -189 -1 -196 -6 -3 17 -6 53 -6 36 0 76 5 90 12
33 16 37 53 10 81 -18 20 -19 24 -5 36 22 18 19 46 -7 64 -15 11 -44 16 -88
15 -36 0 -59 -3 -52 -6z m100 -41 c2 -18 -2 -39 -8 -46 -8 -10 -7 -15 5 -20
29 -11 16 -86 -15 -86 -17 0 -19 9 -19 96 1 83 3 95 17 92 11 -2 18 -15 20
-36z"/>
<path d="M425 304 l0 -106 73 4 c59 3 77 7 88 23 20 27 17 43 -9 67 -23 21
-23 22 -5 40 23 23 23 33 -2 58 -16 16 -33 20 -82 20 l-63 0 0 -106z m101 72
c3 -13 0 -34 -7 -47 -9 -17 -9 -24 0 -27 6 -2 11 -24 11 -48 0 -37 -3 -44 -20
-44 -19 0 -20 7 -20 95 0 77 3 95 15 95 8 0 17 -11 21 -24z"/>
<path d="M238 335 c-15 -8 -30 -24 -33 -35 -10 -30 4 -79 25 -90 30 -16 86
-12 101 8 11 14 11 15 -1 5 -8 -7 -24 -13 -37 -13 -26 0 -36 27 -31 85 4 47
28 61 28 16 0 -28 3 -31 29 -31 24 0 28 3 24 20 -6 24 -40 50 -63 50 -8 -1
-27 -7 -42 -15z"/>
<path d="M653 340 c-42 -17 -56 -77 -27 -118 8 -12 23 -22 32 -22 14 0 17 11
17 67 0 46 4 68 13 71 11 3 13 -11 10 -67 -3 -61 -1 -71 14 -71 24 0 48 39 48
76 0 23 -8 39 -26 53 -29 23 -46 25 -81 11z"/>
<path d="M910 343 c-25 -9 -40 -35 -40 -71 0 -51 16 -72 53 -72 22 0 28 3 18
9 -10 6 -12 26 -9 75 2 36 1 66 -2 65 -3 0 -12 -3 -20 -6z"/>
</g>
</svg>
